<?xml version="1.0" encoding="utf-8"?>
<!-- Designed by Vexels.com - 2019 All Rights Reserved - https://vexels.com/terms-and-conditions/  -->
<svg version="1.1" id="Capa_1" xmlns="http://www.w3.org/2000/svg" xmlns:xlink="http://www.w3.org/1999/xlink" x="0px" y="0px"
	 viewBox="0 0 1200 1200" enable-background="new 0 0 1200 1200" xml:space="preserve">
<g>
	<path fill="#FFFFFF" d="M874.108,680.899c-35.097-90.702-55.154-214.738-65.665-293.544c-10.547-78.806-3.596-128.359,9.371-200.63
		C842.571,48.96,696.266,16.076,638.208,143.017c-18.085,39.524-59.096,148.138-53.39,274.353l-0.727,0.035
		c0,0-101.353-59.269-140.117,45.853l-1.52-0.311c0,0-101.041-56.814-128.463,79.947c-21.923,109.271,22.719,193.334,76.455,216.848
		l-0.38,0.934c-5.601,72.721,3.217,169.889,58.682,213.805c-29.15,48.238-8.3,79.118,9.82,107.784
		c18.396,29.046,79.913,76.939,228.328,41.357c148.449-35.583,154.121-94.125,111.967-154.293l-8.23-3.355
		c40.528-20.643,70.093-57.194,87.487-105.121C878.121,860.85,910.935,775.992,874.108,680.899z"/>
	<path d="M886.841,675.975c-26.449-68.35-48.274-166.063-64.868-290.433c-10.347-77.304-3.396-125.77,9.279-196.404
		c14.498-80.673-24.786-123.208-62.83-135.116c-44.041-13.786-107.45,6.404-142.627,83.313
		c-13.599,29.72-55.862,132.592-55.135,258.985c-19.46-7.253-50.106-14.452-79.663-3.862c-23.469,8.41-41.691,26.211-54.325,52.949
		c-16.386-6.243-46.445-13.744-75.565-0.368c-30.267,13.891-50.625,45.911-60.499,95.17
		c-22.155,110.412,21.058,196.977,75.303,227.468c-3.087,51.11-1.363,155.169,55.605,209.778
		c-24.464,48.955-3.057,82.768,14.359,110.273l1.162,1.835c10.527,16.63,47.44,60.44,142.99,60.436
		c28.029,0,61.117-3.771,100.049-13.105c80.493-19.294,126.482-46.775,140.596-84.013c9.475-25.003,3.971-53.585-16.352-85.038
		c34.152-22.786,60.443-57.728,76.534-102.068C892.271,862.106,925.131,774.85,886.841,675.975z M500.088,418.203
		c27.727-9.998,59.075,2.261,71.568,8.165c3.953,65.448,19.909,126.759,47.525,182.37c5.531,15.174,7.536,31.549,5.968,47.292
		c-17.38-3.474-37.102-7.297-63.822-7.834c-44.722-0.877-70.544,12.16-85.459,27.28c-30.821-45.031-40.772-108.827-27.108-178.255
		c2.116-10.766,4.816-20.593,8.023-29.242C466.421,441.843,480.99,425.096,500.088,418.203z M327.378,545.577
		c8.039-40.106,23.167-65.561,44.96-75.654c20.331-9.416,42.761-3.506,54.753,1.078c-1.939,6.608-3.673,13.578-5.122,20.946
		c-16.006,81.333-2.095,156.512,38.024,208.071c-5.161,13.006-7.109,27.968-5.731,44.726c-7.07,3.266-15.331,5.715-24.731,7.271
		c-10.903,1.799-22.212,0.203-33.612-4.78C347.345,725.978,306.813,648.079,327.378,545.577z M865.29,856.195
		c-16.438,45.289-44.397,79.045-80.864,97.619c-32.908,16.798-72.407,21.598-117.347,14.286
		c-20.62-3.439-51.552-25.737-61.731-34.038c-5.844-4.773-14.439-3.892-19.208,1.944c-4.765,5.837-3.9,14.431,1.936,19.2
		c4.311,3.525,43.036,34.574,74.562,39.832c15.1,2.461,29.692,3.685,43.755,3.685c30.68,0,58.777-5.917,84.01-17.556
		c16.36,24.662,21.195,44.997,14.736,62.039c-10.519,27.759-51.372,50.343-121.428,67.133
		c-158.008,37.887-205.66-22.83-213.601-35.376l-1.166-1.839c-15.579-24.603-29.243-46.235-15.152-78.799
		c19.299,11.367,41.676,17.186,66.958,17.186c5.915,0,11.982-0.313,18.202-0.939c7.499-0.755,12.968-7.448,12.213-14.952
		c-0.751-7.499-7.401-12.976-14.952-12.213c-31.926,3.216-58.519-3.384-78.994-19.634c-53.095-42.042-56.321-138.895-54.478-185.746
		c6.071,1.32,12.167,1.989,18.198,1.989c4.397,0,8.763-0.356,13.054-1.068c9.09-1.502,17.459-3.743,25.095-6.646
		c1.776,6.855,3.969,13.896,6.623,21.097c10.754,29.187,35.967,54.674,69.183,69.926c22.47,10.32,46.869,15.495,71.871,15.491
		c22.455,0,45.395-4.174,67.841-12.538c4.804-1.788,9.901-3.795,15.229-5.891c28.694-11.286,64.422-25.322,93.422-19.556
		c7.413,1.471,14.584-3.321,16.059-10.715c1.475-7.394-3.321-14.584-10.715-16.059c-36.913-7.354-76.745,8.321-108.765,20.925
		c-5.16,2.03-10.097,3.975-14.76,5.708c-40.594,15.131-82.789,14.353-118.791-2.175c-26.664-12.245-46.693-32.129-54.955-54.552
		c-4.385-11.908-7.401-23.218-8.958-33.616c-2.793-18.597-0.947-33.987,5.496-45.75c13.649-24.974,47.171-29.617,72.915-29.105
		c24.986,0.501,43.794,4.264,60.389,7.585c4.366,0.872,8.583,1.717,12.734,2.472c39.515,7.167,70.192,4.233,128.187-31.632
		c6.412-3.967,8.395-12.377,4.428-18.793s-12.393-8.399-18.789-4.428c-46.781,28.925-71.669,32.662-95.635,29.986
		c2.425-20.639-0.03-41.746-7.445-61.833c-0.09-0.245-0.233-0.452-0.336-0.688c-0.098-0.225-0.147-0.459-0.258-0.681
		c-27.364-54.787-42.711-115.587-45.606-180.729c-5.88-130.085,38.443-238.063,52.166-268.06
		c28.299-61.868,76.682-78.932,109.645-68.616c36.143,11.317,53.457,52.229,44.111,104.238
		c-13.144,73.252-20.342,123.595-9.467,204.846c16.88,126.497,39.241,226.307,66.468,296.668
		C895.733,774.537,865.689,855.147,865.29,856.195z"/>
</g>
</svg>
